<?xml version="1.0" encoding="UTF-8" standalone="no"?>
<svg
   xmlns:dc="http://purl.org/dc/elements/1.1/"
   xmlns:cc="http://creativecommons.org/ns#"
   xmlns:rdf="http://www.w3.org/1999/02/22-rdf-syntax-ns#"
   xmlns:svg="http://www.w3.org/2000/svg"
   xmlns="http://www.w3.org/2000/svg"
   xmlns:sodipodi="http://sodipodi.sourceforge.net/DTD/sodipodi-0.dtd"
   xmlns:inkscape="http://www.inkscape.org/namespaces/inkscape"
   height="67px"
   id="Layer_1"
   style="enable-background:new 0 0 67 67;"
   version="1.1"
   viewBox="0 0 67 67"
   width="67px"
   xml:space="preserve"
   inkscape:version="0.48.5 r10040"
   sodipodi:docname="facebook_circle_color.svg"><metadata
     id="metadata9"><rdf:RDF><cc:Work
         rdf:about=""><dc:format>image/svg+xml</dc:format><dc:type
           rdf:resource="http://purl.org/dc/dcmitype/StillImage" /></cc:Work></rdf:RDF></metadata><defs
     id="defs7" /><sodipodi:namedview
     pagecolor="#ffffff"
     bordercolor="#666666"
     borderopacity="1"
     objecttolerance="10"
     gridtolerance="10"
     guidetolerance="10"
     inkscape:pageopacity="0"
     inkscape:pageshadow="2"
     inkscape:window-width="1281"
     inkscape:window-height="1015"
     id="namedview5"
     showgrid="false"
     inkscape:zoom="2.4907045"
     inkscape:cx="37.586808"
     inkscape:cy="32.517177"
     inkscape:window-x="0"
     inkscape:window-y="0"
     inkscape:window-maximized="0"
     inkscape:current-layer="Layer_1" /><path
     d="M29.765,50.32h6.744V33.998h4.499l0.596-5.624h-5.095  l0.007-2.816c0-1.466,0.14-2.253,2.244-2.253h2.812V17.68h-4.5c-5.405,0-7.307,2.729-7.307,7.317v3.377h-3.369v5.625h3.369V50.32z   M34,64C17.432,64,4,50.568,4,34C4,17.431,17.432,4,34,4s30,13.431,30,30C64,50.568,50.568,64,34,64z"
     style="fill-rule:evenodd;clip-rule:evenodd;fill:#3A589B;"
     id="path3" /><path
     style="fill:#ffffff"
     d="m 29.878145,42.030889 0,-8.029857 -1.605971,0 -1.605971,0 0,-2.81045 0,-2.81045 1.554385,0 1.554385,0 0.181189,-3.129932 c 0.32051,-5.536622 2.328089,-7.308881 8.279347,-7.308881 l 3.285929,0 0,2.609703 0,2.609703 -2.127912,0 c -1.170352,0 -2.344719,0.216807 -2.609704,0.481792 -0.264985,0.264985 -0.481791,1.439352 -0.481791,2.609703 l 0,2.127912 2.584461,0 2.584461,0 -0.197192,1.505598 c -0.585902,4.473481 -0.343793,4.115302 -2.781712,4.115302 l -2.190018,0 0,8.029857 0,8.029856 -3.211943,0 -3.211943,0 0,-8.029856 z"
     id="path2986"
     inkscape:connector-curvature="0" /></svg>