<?xml version="1.0" encoding="UTF-8" standalone="no"?>
<svg
   xmlns:dc="http://purl.org/dc/elements/1.1/"
   xmlns:cc="http://creativecommons.org/ns#"
   xmlns:rdf="http://www.w3.org/1999/02/22-rdf-syntax-ns#"
   xmlns:svg="http://www.w3.org/2000/svg"
   xmlns="http://www.w3.org/2000/svg"
   xmlns:sodipodi="http://sodipodi.sourceforge.net/DTD/sodipodi-0.dtd"
   xmlns:inkscape="http://www.inkscape.org/namespaces/inkscape"
   height="67px"
   id="Layer_1"
   style="enable-background:new 0 0 67 67;"
   version="1.1"
   viewBox="0 0 67 67"
   width="67px"
   xml:space="preserve"
   inkscape:version="0.48.5 r10040"
   sodipodi:docname="linkedin_circle_color.svg"><metadata
     id="metadata3873"><rdf:RDF><cc:Work
         rdf:about=""><dc:format>image/svg+xml</dc:format><dc:type
           rdf:resource="http://purl.org/dc/dcmitype/StillImage" /></cc:Work></rdf:RDF></metadata><defs
     id="defs3871" /><sodipodi:namedview
     pagecolor="#ffffff"
     bordercolor="#666666"
     borderopacity="1"
     objecttolerance="10"
     gridtolerance="10"
     guidetolerance="10"
     inkscape:pageopacity="0"
     inkscape:pageshadow="2"
     inkscape:window-width="1925"
     inkscape:window-height="1163"
     id="namedview3869"
     showgrid="false"
     inkscape:zoom="3.5223881"
     inkscape:cx="33.5"
     inkscape:cy="33.5"
     inkscape:window-x="0"
     inkscape:window-y="0"
     inkscape:window-maximized="0"
     inkscape:current-layer="Layer_1" /><path
     d="M50.837,48.137V36.425c0-6.275-3.35-9.195-7.816-9.195  c-3.604,0-5.219,1.983-6.119,3.374V27.71h-6.79c0.09,1.917,0,20.427,0,20.427h6.79V36.729c0-0.609,0.044-1.219,0.224-1.655  c0.49-1.22,1.607-2.483,3.482-2.483c2.458,0,3.44,1.873,3.44,4.618v10.929H50.837z M22.959,24.922c2.367,0,3.842-1.57,3.842-3.531  c-0.044-2.003-1.475-3.528-3.797-3.528s-3.841,1.524-3.841,3.528c0,1.961,1.474,3.531,3.753,3.531H22.959z M34,64  C17.432,64,4,50.568,4,34C4,17.431,17.432,4,34,4s30,13.431,30,30C64,50.568,50.568,64,34,64z M26.354,48.137V27.71h-6.789v20.427  H26.354z"
     style="fill-rule:evenodd;clip-rule:evenodd;fill:#007AB9;"
     id="path3867" /><path
     style="fill:#ffffff"
     d="m 19.759322,38.013983 0,-10.07839 3.264831,0 3.26483,0 0,10.07839 0,10.07839 -3.26483,0 -3.264831,0 0,-10.07839 z"
     id="path3875"
     inkscape:connector-curvature="0" /><path
     style="fill:#ffffff"
     d="M 21.30725,24.413618 C 19.577962,23.66037 18.843744,21.13474 19.889903,19.5381 c 0.536085,-0.818169 2.012912,-1.538947 3.1532,-1.538947 1.12415,0 2.501648,0.760256 3.04543,1.680805 1.751218,2.964577 -1.485633,6.169188 -4.781283,4.73366 z"
     id="path3877"
     inkscape:connector-curvature="0" /><path
     style="fill:#ffffff"
     d="m 30.263559,38.013983 0,-10.07839 3.264831,0 3.26483,0 0,1.46673 0,1.466729 1.064619,-1.144125 c 1.625338,-1.746718 2.69924,-2.203739 5.181144,-2.204941 2.479256,-0.0012 3.824863,0.534567 5.381868,2.142851 1.916012,1.979115 2.1006,2.903749 2.219762,11.119155 l 0.106034,7.310381 -3.286035,0 -3.286036,0 -0.0016,-6.032839 c -8.71e-4,-3.318062 -0.132363,-6.503706 -0.292204,-7.07921 -0.61237,-2.204818 -2.900106,-3.104205 -5.100281,-2.005095 -1.817277,0.907832 -1.986348,1.656702 -1.986846,8.800407 l -4.42e-4,6.316737 -3.26483,0 -3.264831,0 0,-10.07839 z"
     id="path3879"
     inkscape:connector-curvature="0" /></svg>