<?xml version="1.0" encoding="UTF-8" standalone="no"?>
<svg
   xmlns:dc="http://purl.org/dc/elements/1.1/"
   xmlns:cc="http://creativecommons.org/ns#"
   xmlns:rdf="http://www.w3.org/1999/02/22-rdf-syntax-ns#"
   xmlns:svg="http://www.w3.org/2000/svg"
   xmlns="http://www.w3.org/2000/svg"
   xmlns:sodipodi="http://sodipodi.sourceforge.net/DTD/sodipodi-0.dtd"
   xmlns:inkscape="http://www.inkscape.org/namespaces/inkscape"
   height="67px"
   id="Layer_1"
   style="enable-background:new 0 0 67 67;"
   version="1.1"
   viewBox="0 0 67 67"
   width="67px"
   xml:space="preserve"
   inkscape:version="0.48.5 r10040"
   sodipodi:docname="twitter_circle_color.svg"><metadata
     id="metadata3060"><rdf:RDF><cc:Work
         rdf:about=""><dc:format>image/svg+xml</dc:format><dc:type
           rdf:resource="http://purl.org/dc/dcmitype/StillImage" /></cc:Work></rdf:RDF></metadata><defs
     id="defs3058" /><sodipodi:namedview
     pagecolor="#ffffff"
     bordercolor="#666666"
     borderopacity="1"
     objecttolerance="10"
     gridtolerance="10"
     guidetolerance="10"
     inkscape:pageopacity="0"
     inkscape:pageshadow="2"
     inkscape:window-width="1920"
     inkscape:window-height="1151"
     id="namedview3056"
     showgrid="false"
     inkscape:zoom="3.5223881"
     inkscape:cx="33.5"
     inkscape:cy="33.5"
     inkscape:window-x="0"
     inkscape:window-y="0"
     inkscape:window-maximized="1"
     inkscape:current-layer="Layer_1" /><path
     d="M38.167,22.283c-2.619,0.953-4.274,3.411-4.086,6.101  l0.063,1.038l-1.048-0.127c-3.813-0.487-7.145-2.139-9.974-4.915l-1.383-1.377l-0.356,1.017c-0.754,2.267-0.272,4.661,1.299,6.271  c0.838,0.89,0.649,1.017-0.796,0.487c-0.503-0.169-0.943-0.296-0.985-0.233c-0.146,0.149,0.356,2.076,0.754,2.839  c0.545,1.06,1.655,2.097,2.871,2.712l1.027,0.487l-1.215,0.021c-1.173,0-1.215,0.021-1.089,0.467  c0.419,1.377,2.074,2.839,3.918,3.475l1.299,0.444l-1.131,0.678c-1.676,0.976-3.646,1.526-5.616,1.567  C20.775,43.256,20,43.341,20,43.405c0,0.211,2.557,1.397,4.044,1.864c4.463,1.377,9.765,0.783,13.746-1.568  c2.829-1.674,5.657-5,6.978-8.221c0.713-1.715,1.425-4.851,1.425-6.354c0-0.975,0.063-1.102,1.236-2.267  c0.692-0.678,1.341-1.419,1.467-1.631c0.21-0.403,0.188-0.403-0.88-0.043c-1.781,0.636-2.033,0.551-1.152-0.402  c0.649-0.678,1.425-1.907,1.425-2.267c0-0.063-0.314,0.042-0.671,0.233c-0.377,0.212-1.215,0.53-1.844,0.72l-1.131,0.361l-1.027-0.7  c-0.566-0.381-1.361-0.805-1.781-0.932C40.766,21.902,39.131,21.944,38.167,22.283z M34,64C17.432,64,4,50.568,4,34  C4,17.431,17.432,4,34,4s30,13.431,30,30C64,50.568,50.568,64,34,64z"
     style="fill-rule:evenodd;clip-rule:evenodd;fill:#598DCA;"
     id="path3054" /><path
     style="fill:#ffffff"
     d="M 27.055508,45.678478 C 25.077364,45.473573 23.59081,45.042704 21.595815,44.096017 l -1.047335,-0.496993 2.188923,-0.338443 c 2.286987,-0.353606 6.041205,-1.887978 5.754488,-2.351895 -0.09094,-0.147149 -0.53975,-0.349776 -0.997349,-0.450281 -1.532535,-0.336602 -4.439778,-2.910344 -3.898676,-3.451446 0.0913,-0.0913 0.587683,-0.255777 1.103075,-0.365507 l 0.937076,-0.199508 -1.135593,-0.591648 c -1.41571,-0.737591 -2.258998,-1.628153 -2.825433,-2.983823 -0.707453,-1.693173 -0.60785,-2.01635 0.554246,-1.79834 1.156529,0.216967 1.351753,-0.278929 0.436051,-1.107628 -0.95914,-0.86801 -1.528008,-2.807265 -1.344647,-4.583863 0.0902,-0.873929 0.229367,-1.654334 0.309266,-1.734232 0.0799,-0.0799 1.013959,0.578858 2.07569,1.463904 2.316375,1.930903 5.336019,3.485659 7.793355,4.012647 2.834245,0.607818 2.795963,0.622072 2.795963,-1.041098 0,-3.17849 2.196135,-5.513076 5.496986,-5.843531 1.24739,-0.124879 1.699002,-0.01869 3.119767,0.733555 1.959487,1.03748 2.026295,1.043277 3.709287,0.321863 0.715593,-0.306739 1.297525,-0.466432 1.293181,-0.354873 -0.0043,0.111559 -0.387607,0.704671 -0.851695,1.318027 -0.96352,1.273422 -1.058751,1.680051 -0.346975,1.48155 0.273252,-0.0762 0.810287,-0.229435 1.193411,-0.340511 0.623714,-0.180829 0.568953,-0.04951 -0.523429,1.25522 -1.06218,1.268657 -1.251826,1.705071 -1.465885,3.373287 -0.575239,4.48298 -2.266666,8.03498 -5.256445,11.038544 -3.573882,3.590361 -8.239471,5.17354 -13.60761,4.617484 z"
     id="path3830"
     inkscape:connector-curvature="0" /></svg>